<svg xmlns="http://www.w3.org/2000/svg" viewBox="0 0 233.79 104.9"><g data-name="Camada 2"><g data-name="Camada 1"><path d="M0 5.92h3.62v6.53h6.73V5.92H14v16.73h-3.65v-7.24H3.62v7.24H0zm20.64-.12v16.85h-2.5V5.8zm18.22 16.85H37a9.13 9.13 0 01-.22-2.16c-.78 1.2-2.27 2.4-5.18 2.4-4.86 0-7.47-3.69-7.47-8.49 0-5 2.8-8.84 7.93-8.84 4 0 6.47 2.18 6.94 5.17h-2.5A4.21 4.21 0 0032 7.61c-3.83 0-5.27 3.08-5.27 6.68 0 3.36 1.48 6.53 5.2 6.53s4.52-2.45 4.52-5v-.17h-4.58v-2.16h7zM42.89 5.8h2.5v7h8.4v-7h2.5v16.85h-2.5v-7.78h-8.4v7.78h-2.5zM3.53 45.07v6.7H0V35h7.35C11 35 13 37.05 13 39.63a4 4 0 01-2.43 4c.83.31 2.08 1.17 2.08 4.16v.83a13.4 13.4 0 00.24 3.19H9.42A11.89 11.89 0 019.07 48v-.24c0-1.83-.46-2.7-3.16-2.7zm0-2.88h3c2 0 2.74-.75 2.74-2.15s-.89-2.12-2.66-2.12H3.53zM27 44h-8.31v5.65h9.15l-.32 2.12H16.25V34.92h11.16V37h-8.72v4.86H27zm7.91-7h-5.38v-2.08h13.28V37h-5.38v14.77h-2.52zM48 34.92V45c0 3.84 2.08 4.89 4.18 4.89 2.44 0 4.13-1.15 4.13-4.89V34.92h2.51v10c0 5.52-3.09 7.07-6.69 7.07s-6.66-1.66-6.66-6.93V34.92zm17.57 9.55v7.3H63.1V34.92h6.74c3.5 0 5.37 1.9 5.37 4.53a3.86 3.86 0 01-2.79 4c1.27.36 2.48 1.36 2.48 4.3v.74a12.26 12.26 0 00.23 3.32h-2.42a11.83 11.83 0 01-.29-3.66v-.33c0-2.3-.64-3.31-3.6-3.31zm0-2.07h3.55c2.46 0 3.53-.93 3.53-2.73S71.53 37 69.34 37h-3.77zm13.32 9.37V34.92h3.26c2.35 3.91 7.35 12 8.27 13.83-.17-2.09-.15-4.8-.15-7.55v-6.28h2.33v16.85h-3.03c-2.15-3.59-7.41-12.39-8.42-14.29.12 1.84.13 4.81.13 7.85v6.44zM14 74.61c0-2.86 0-6.06.12-8H14c-.78 3.42-2.46 9-4.06 14.22H6.88C5.66 76.31 3.93 70 3.2 66.62h-.12c.15 2 .22 5.4.22 8.27v6H0V64.16h5.38C6.69 68.53 8.15 74 8.65 76.5c.41-2.2 2.24-8.06 3.64-12.34h5.19v16.72H14zm10.15 1.44l-1.72 4.83H20L25.89 64H29l6.2 16.88h-2.66l-1.78-4.83zm6-2.12c-1.53-4.26-2.39-6.6-2.76-7.93-.41 1.47-1.37 4.28-2.6 7.93zm7.59 6.95V64H41c2.36 3.91 7.35 12 8.27 13.83-.17-2.09-.15-4.79-.15-7.55V64h2.34v16.88h-3.04C46.27 77.29 41 68.5 40 66.6c.12 1.83.13 4.8.13 7.84v6.44zm20.62-4.83l-1.72 4.83h-2.48L60.1 64h3.1l6.21 16.85h-2.66L65 76.05zm6-2.12C62.83 69.67 62 67.33 61.6 66c-.41 1.47-1.37 4.28-2.6 7.93zm21.2 6.95h-1.89a9.53 9.53 0 01-.23-2.16c-.77 1.2-2.26 2.4-5.17 2.4-4.87 0-7.48-3.69-7.48-8.48 0-5 2.8-8.85 7.93-8.85 4 0 6.48 2.18 6.94 5.17h-2.5a4.2 4.2 0 00-4.49-3.12c-3.82 0-5.27 3.08-5.27 6.68 0 3.36 1.48 6.53 5.2 6.53s4.52-2.45 4.52-5v-.17h-4.54v-2.16h7zm14.8-7.76H92v5.64h9.14l-.31 2.12H89.59V64h11.16v2.12H92V71h8.32zm18.16.74c0-3.08 0-6.27.11-8.06h-.09c-.74 2.86-3.27 9.79-5.14 15.08h-2.21c-1.42-4.37-4-12.15-4.79-15.12h-.08c.13 1.95.19 5.64.19 8.53v6.59h-2.34V64h3.73c1.8 5.07 4 11.59 4.54 13.8.4-1.73 3-8.85 4.86-13.8h3.7v16.88h-2.44zm17.67-.74h-8.32v5.64H137l-.32 2.12h-11.25V64h11.16v2.12h-8.72V71h8.32zm3.81 7.76V64h3.25c2.36 3.91 7.35 12 8.27 13.83-.16-2.09-.15-4.79-.15-7.55V64h2.34v16.88h-3.07c-2.15-3.59-7.41-12.38-8.42-14.28.13 1.83.13 4.8.13 7.84v6.44zm21.68-14.73h-5.38V64h13.28v2.12h-5.38v14.76h-2.52z" fill="#9c9b9b"/><path d="M183.8 100.27a8.69 8.69 0 01-6.17-14.81L212.83 50l-35.18-35.16a8.69 8.69 0 0112.29-12.3l41.3 41.26a8.69 8.69 0 010 12.27L190 97.7a8.69 8.69 0 01-6.2 2.57z" fill="#a9cc6d"/><path d="M2.51 92.22h3.18c2 0 2.76 1.08 2.76 2.3a2.37 2.37 0 01-1.91 2.37 2.11 2.11 0 011.45 2c0 2.09-1.62 3-3.77 3H.44zM1.85 101h2.4c1.34 0 2.46-.62 2.46-2 0-1-.63-1.67-2.1-1.67h-2zm3.06-4.7c1.33 0 2.27-.47 2.27-1.7 0-1-.77-1.38-1.73-1.38H3.5l-.65 3.08zm10.86 1.36c0 1.87-1.06 4.45-3.79 4.45-1.71 0-2.66-1.09-2.66-2.86 0-2 1.2-4.53 3.76-4.53 1.62 0 2.69 1.05 2.69 2.94zm-5.25 1.58c0 1.18.56 1.9 1.59 1.9 1.71 0 2.46-2 2.46-3.52 0-1.2-.52-1.92-1.6-1.92-1.64 0-2.45 2.02-2.45 3.54zm12.8-1.58c0 1.87-1.06 4.45-3.79 4.45a2.53 2.53 0 01-2.67-2.86c0-2 1.2-4.53 3.77-4.53 1.62 0 2.69 1.05 2.69 2.94zm-5.26 1.58c0 1.18.57 1.9 1.6 1.9 1.7 0 2.46-2 2.46-3.52 0-1.2-.52-1.92-1.6-1.92-1.65 0-2.46 2.02-2.46 3.54zm7.22.59a1.45 1.45 0 001.66 1.34c.95 0 1.45-.47 1.45-1.15s-.47-1-1.47-1.34c-1.53-.54-2-1.08-2-1.9 0-1.1.84-2.06 2.56-2.06s2.53 1 2.5 2H28.8c-.05-.49-.28-1.12-1.43-1.12-.74 0-1.28.36-1.28 1s.41.74 1.41 1.1c1.5.54 2.1 1.13 2.1 2.12 0 1.42-1.14 2.24-2.83 2.24s-2.68-1-2.67-2.28zm5.82-4.97h1.18l.44-2h1.15l-.43 2H35l-.22 1h-1.56l-.9 4.3c-.14.65-.1 1 .51 1a3.37 3.37 0 00.7-.06l-.21.91a2.82 2.82 0 01-1 .13c-1.12 0-1.48-.54-1.23-1.72l1-4.52h-1.2zm5.22 0h1.16L36 102h-1.19zm.68-3.18h1.16l-.32 1.54h-1.17zm2.18 4.99c.13-.62.25-1.22.36-1.81h1.13c0 .23-.16 1-.21 1.22a2.63 2.63 0 012.38-1.36c1.36 0 2.2.79 1.77 2.8l-.93 4.48h-1.16l.93-4.41c.23-1.07 0-1.81-1.1-1.81C41 95.75 40.28 97 40 98.42l-.78 3.58h-1.16zm12.44 4.6c-.48 2.25-1.18 3.63-3.63 3.63s-2.65-1.32-2.65-2.15h1.17c0 .65.46 1.21 1.6 1.21 1.5 0 2-1 2.36-2.68l.14-.63a2.51 2.51 0 01-2.29 1.28c-1.42 0-2.31-1-2.31-2.73 0-2.1 1.26-4.48 3.59-4.48 1.24 0 1.87.63 2 1.16.09-.34.22-.81.3-1H53c-.14.56-.29 1.26-.43 1.89zm-4.39-2.15c0 1.2.52 1.81 1.48 1.81 1.32 0 2.13-1.23 2.45-2.71s0-2.49-1.49-2.49-2.44 1.73-2.44 3.39zm11.63-4.26c.43 3.16.71 5.49.75 6.2.4-.77 1.29-2.75 3.11-6.2H64l-4 7.51c-1.23 2.34-1.9 2.53-3.2 2.53a3.49 3.49 0 01-.81-.09l.24-1a3.71 3.71 0 00.64.06c.93 0 1.26-.39 1.89-1.49l-1.09-7.5zm11.74 2.8c0 1.87-1.07 4.45-3.79 4.45a2.53 2.53 0 01-2.67-2.86c0-2 1.2-4.53 3.76-4.53a2.61 2.61 0 012.7 2.94zm-5.26 1.58c0 1.18.56 1.9 1.6 1.9 1.7 0 2.45-2 2.45-3.52 0-1.2-.51-1.92-1.59-1.92-1.65 0-2.46 2.02-2.46 3.54zm11.97.83c-.14.63-.27 1.33-.37 1.9h-1.13a11.4 11.4 0 01.2-1.23 2.65 2.65 0 01-2.38 1.37c-1.3 0-2.14-.75-1.74-2.61l1-4.64H74l-1 4.52c-.2.91-.16 1.73 1 1.73s2-.82 2.45-2.82l.74-3.43h1.16zM80.08 97c.14-.7.29-1.45.41-2.11h1.11a13.15 13.15 0 01-.26 1.51 2.8 2.8 0 012.5-1.65l-.26 1.21a3.09 3.09 0 00-2.71 2.71l-.7 3.33H79zm9.44-5.32h1.16l-.9 4.25a2.74 2.74 0 012.31-1.21c1.46 0 2.3 1 2.3 2.63 0 2.22-1.19 4.76-3.75 4.76A1.92 1.92 0 0188.7 101c-.08.35-.19.8-.24 1h-1.14c.08-.34.24-1 .43-1.9zm3.66 5.78c0-1.12-.49-1.72-1.49-1.72-1.34 0-2.2 1.22-2.5 2.71s.1 2.66 1.47 2.66c1.73 0 2.52-2.11 2.52-3.65zm7.89 2.61c-.14.63-.27 1.33-.37 1.9h-1.13a11.4 11.4 0 01.2-1.23 2.67 2.67 0 01-2.39 1.37c-1.29 0-2.13-.75-1.73-2.61l1-4.64h1.15l-1 4.52c-.2.91-.16 1.73 1 1.73s2-.82 2.45-2.82l.73-3.43h1.16zm2.61-.24c.07.74.53 1.34 1.66 1.34 1 0 1.45-.47 1.45-1.15s-.47-1-1.48-1.34c-1.52-.54-2-1.08-2-1.9 0-1.1.84-2.06 2.56-2.06s2.53 1 2.5 2h-1.17c0-.49-.28-1.12-1.43-1.12-.74 0-1.28.36-1.28 1s.41.74 1.41 1.1c1.5.54 2.1 1.13 2.1 2.12 0 1.42-1.14 2.24-2.83 2.24s-2.68-1-2.67-2.28zm6.98-4.97h1.16l-1.51 7.14h-1.16zm.67-3.18h1.16l-.32 1.54H111zm2.19 4.99c.13-.62.25-1.22.36-1.81H115a11 11 0 01-.22 1.22 2.66 2.66 0 012.39-1.36c1.35 0 2.2.79 1.77 2.8L118 102h-1.15l.92-4.41c.24-1.07 0-1.81-1.09-1.81-1.32 0-2.07 1.21-2.38 2.67l-.75 3.55h-1.15zm8.03 1.92a4.27 4.27 0 00-.06.68c0 1.19.57 1.87 1.57 1.87a1.93 1.93 0 001.83-1.17h1.21a3.2 3.2 0 01-3.17 2.14c-1.79 0-2.61-1.18-2.61-2.82 0-2 1.09-4.57 3.71-4.57a2.32 2.32 0 012.54 2.54 5.16 5.16 0 01-.17 1.33zm3.85-.88a2.32 2.32 0 000-.51 1.34 1.34 0 00-1.4-1.53c-1.08 0-1.87.74-2.22 2zm3.01 2.12a1.45 1.45 0 001.66 1.34c1 0 1.45-.47 1.45-1.15s-.46-1-1.47-1.34c-1.53-.54-2-1.08-2-1.9 0-1.1.85-2.06 2.56-2.06s2.54 1 2.51 2h-1.18c-.05-.49-.28-1.12-1.43-1.12-.74 0-1.28.36-1.28 1s.41.74 1.41 1.1c1.49.54 2.1 1.13 2.1 2.12 0 1.42-1.14 2.24-2.84 2.24s-2.67-1-2.66-2.28zm6.53 0a1.45 1.45 0 001.66 1.34c1 0 1.45-.47 1.45-1.15s-.47-1-1.47-1.34c-1.53-.54-2-1.08-2-1.9 0-1.1.84-2.06 2.56-2.06s2.53 1 2.5 2h-1.18c-.05-.49-.28-1.12-1.43-1.12-.74 0-1.28.36-1.28 1s.41.74 1.41 1.1c1.5.54 2.1 1.13 2.1 2.12 0 1.42-1.14 2.24-2.83 2.24s-2.68-1-2.67-2.28z" fill="#6c6c6c"/></g></g></svg>