<svg xmlns="http://www.w3.org/2000/svg" viewBox="0 0 233.79 104.9"><g id="f176339f-06a3-4cce-a099-49eec0a2ea16" data-name="Camada 2"><g id="b3a5c51f-8bff-43b0-9703-2582361b3c6d" data-name="Camada 1"><path d="M0,5.92H3.62v6.53h6.73V5.92H14V22.65H10.35V15.41H3.62v7.24H0Z" fill="#9c9b9b"/><path d="M20.64,5.8V22.65h-2.5V5.8Z" fill="#9c9b9b"/><path d="M38.86,22.65H37a9.13,9.13,0,0,1-.22-2.16c-.78,1.2-2.27,2.4-5.18,2.4-4.86,0-7.47-3.69-7.47-8.49,0-5,2.8-8.84,7.93-8.84,4,0,6.47,2.18,6.94,5.17h-2.5A4.21,4.21,0,0,0,32,7.61c-3.83,0-5.27,3.08-5.27,6.68,0,3.36,1.48,6.53,5.2,6.53s4.52-2.45,4.52-5v-.17H31.87V13.49h7Z" fill="#9c9b9b"/><path d="M42.89,5.8h2.5v7h8.4V5.8h2.5V22.65h-2.5V14.87h-8.4v7.78h-2.5Z" fill="#9c9b9b"/><path d="M3.53,45.07v6.7H0V35H7.35C11,35,13,37.05,13,39.63a4,4,0,0,1-2.43,4c.83.31,2.08,1.17,2.08,4.16v.83a13.4,13.4,0,0,0,.24,3.19H9.42A11.89,11.89,0,0,1,9.07,48v-.24c0-1.83-.46-2.7-3.16-2.7Zm0-2.88h3c2,0,2.74-.75,2.74-2.15s-.89-2.12-2.66-2.12H3.53Z" fill="#9c9b9b"/><path d="M27,44H18.69v5.65h9.15l-.32,2.12H16.25V34.92H27.41V37H18.69v4.86H27Z" fill="#9c9b9b"/><path d="M34.91,37H29.53V34.92H42.81V37H37.43V51.77H34.91Z" fill="#9c9b9b"/><path d="M48,34.92V45c0,3.84,2.08,4.89,4.18,4.89,2.44,0,4.13-1.15,4.13-4.89V34.92h2.51v10c0,5.52-3.09,7.07-6.69,7.07s-6.66-1.66-6.66-6.93V34.92Z" fill="#9c9b9b"/><path d="M65.57,44.47v7.3H63.1V34.92h6.74c3.5,0,5.37,1.9,5.37,4.53a3.86,3.86,0,0,1-2.79,4c1.27.36,2.48,1.36,2.48,4.3v.74a12.26,12.26,0,0,0,.23,3.32H72.71a11.83,11.83,0,0,1-.29-3.66v-.33c0-2.3-.64-3.31-3.6-3.31Zm0-2.07h3.55c2.46,0,3.53-.93,3.53-2.73S71.53,37,69.34,37H65.57Z" fill="#9c9b9b"/><path d="M78.89,51.77V34.92h3.26c2.35,3.91,7.35,12,8.27,13.83h0c-.17-2.09-.15-4.8-.15-7.55V34.92h2.33V51.77H89.57c-2.15-3.59-7.41-12.39-8.42-14.29h0c.12,1.84.13,4.81.13,7.85v6.44Z" fill="#9c9b9b"/><path d="M14,74.61c0-2.86,0-6.06.12-8H14c-.78,3.42-2.46,9-4.06,14.22H6.88C5.66,76.31,3.93,70,3.2,66.62H3.08c.15,2,.22,5.4.22,8.27v6H0V64.16H5.38C6.69,68.53,8.15,74,8.65,76.5h0c.41-2.2,2.24-8.06,3.64-12.34h5.19V80.88H14Z" fill="#9c9b9b"/><path d="M24.15,76.05l-1.72,4.83H20L25.89,64H29L35.2,80.88H32.54l-1.78-4.83Zm6-2.12c-1.53-4.26-2.39-6.6-2.76-7.93h0c-.41,1.47-1.37,4.28-2.6,7.93Z" fill="#9c9b9b"/><path d="M37.74,80.88V64H41c2.36,3.91,7.35,12,8.27,13.83h0c-.17-2.09-.15-4.79-.15-7.55V64h2.34V80.88H48.42C46.27,77.29,41,68.5,40,66.6h0c.12,1.83.13,4.8.13,7.84v6.44Z" fill="#9c9b9b"/><path d="M58.36,76.05l-1.72,4.83H54.16L60.1,64h3.1l6.21,16.85H66.75L65,76.05Zm6-2.12C62.83,69.67,62,67.33,61.6,66h0c-.41,1.47-1.37,4.28-2.6,7.93Z" fill="#9c9b9b"/><path d="M85.56,80.88H83.67a9.53,9.53,0,0,1-.23-2.16c-.77,1.2-2.26,2.4-5.17,2.4-4.87,0-7.48-3.69-7.48-8.48,0-5,2.8-8.85,7.93-8.85,4,0,6.48,2.18,6.94,5.17h-2.5a4.2,4.2,0,0,0-4.49-3.12c-3.82,0-5.27,3.08-5.27,6.68,0,3.36,1.48,6.53,5.2,6.53s4.52-2.45,4.52-5v-.17H78.58V71.72h7Z" fill="#9c9b9b"/><path d="M100.36,73.12H92v5.64h9.14l-.31,2.12H89.59V64h11.16v2.12H92V71h8.32Z" fill="#9c9b9b"/><path d="M118.52,73.86c0-3.08,0-6.27.11-8.06h-.09c-.74,2.86-3.27,9.79-5.14,15.08h-2.21c-1.42-4.37-4-12.15-4.79-15.12h-.08c.13,1.95.19,5.64.19,8.53v6.59h-2.34V64h3.73c1.8,5.07,4,11.59,4.54,13.8h0c.4-1.73,3-8.85,4.86-13.8H121V80.88h-2.44Z" fill="#9c9b9b"/><path d="M136.19,73.12h-8.32v5.64H137l-.32,2.12H125.43V64h11.16v2.12h-8.72V71h8.32Z" fill="#9c9b9b"/><path d="M140,80.88V64h3.25c2.36,3.91,7.35,12,8.27,13.83h0c-.16-2.09-.15-4.79-.15-7.55V64h2.34V80.88h-3.07c-2.15-3.59-7.41-12.38-8.42-14.28h0c.13,1.83.13,4.8.13,7.84v6.44Z" fill="#9c9b9b"/><path d="M161.68,66.15H156.3V64h13.28v2.12H164.2V80.88h-2.52Z" fill="#9c9b9b"/><path d="M183.8,100.27a8.69,8.69,0,0,1-6.17-14.81L212.83,50,177.65,14.84a8.69,8.69,0,0,1,12.29-12.3l41.3,41.26a8.69,8.69,0,0,1,0,12.27L190,97.7A8.69,8.69,0,0,1,183.8,100.27Z" fill="#a9cc6d"/><path d="M2.51,92.22H5.69c2,0,2.76,1.08,2.76,2.3a2.37,2.37,0,0,1-1.91,2.37,2.11,2.11,0,0,1,1.45,2c0,2.09-1.62,3-3.77,3H.44ZM1.85,101h2.4c1.34,0,2.46-.62,2.46-2,0-1-.63-1.67-2.1-1.67h-2ZM4.91,96.3c1.33,0,2.27-.47,2.27-1.7,0-1-.77-1.38-1.73-1.38H3.5L2.85,96.3Z" fill="#6c6c6c"/><path d="M15.77,97.66c0,1.87-1.06,4.45-3.79,4.45-1.71,0-2.66-1.09-2.66-2.86,0-2,1.2-4.53,3.76-4.53C14.7,94.72,15.77,95.77,15.77,97.66Zm-5.25,1.58c0,1.18.56,1.9,1.59,1.9,1.71,0,2.46-2,2.46-3.52,0-1.2-.52-1.92-1.6-1.92C11.33,95.7,10.52,97.72,10.52,99.24Z" fill="#6c6c6c"/><path d="M23.32,97.66c0,1.87-1.06,4.45-3.79,4.45a2.53,2.53,0,0,1-2.67-2.86c0-2,1.2-4.53,3.77-4.53C22.25,94.72,23.32,95.77,23.32,97.66Zm-5.26,1.58c0,1.18.57,1.9,1.6,1.9,1.7,0,2.46-2,2.46-3.52,0-1.2-.52-1.92-1.6-1.92C18.87,95.7,18.06,97.72,18.06,99.24Z" fill="#6c6c6c"/><path d="M25.28,99.83a1.45,1.45,0,0,0,1.66,1.34c.95,0,1.45-.47,1.45-1.15s-.47-1-1.47-1.34c-1.53-.54-2-1.08-2-1.9,0-1.1.84-2.06,2.56-2.06s2.53,1,2.5,2H28.8c-.05-.49-.28-1.12-1.43-1.12-.74,0-1.28.36-1.28,1s.41.74,1.41,1.1c1.5.54,2.1,1.13,2.1,2.12,0,1.42-1.14,2.24-2.83,2.24s-2.68-1-2.67-2.28Z" fill="#6c6c6c"/><path d="M31.1,94.86h1.18l.44-2h1.15l-.43,2H35l-.22,1H33.22l-.9,4.3c-.14.65-.1,1,.51,1a3.37,3.37,0,0,0,.7-.06l-.21.91a2.82,2.82,0,0,1-1,.13c-1.12,0-1.48-.54-1.23-1.72l1-4.52H30.89Z" fill="#6c6c6c"/><path d="M36.32,94.86h1.16L36,102H34.81ZM37,91.68h1.16l-.32,1.54H36.67Z" fill="#6c6c6c"/><path d="M39.18,96.67c.13-.62.25-1.22.36-1.81h1.13c0,.23-.16,1-.21,1.22a2.63,2.63,0,0,1,2.38-1.36c1.36,0,2.2.79,1.77,2.8L43.68,102H42.52l.93-4.41c.23-1.07,0-1.81-1.1-1.81C41,95.75,40.28,97,40,98.42L39.22,102H38.06Z" fill="#6c6c6c"/><path d="M51.62,101.27c-.48,2.25-1.18,3.63-3.63,3.63s-2.65-1.32-2.65-2.15h1.17c0,.65.46,1.21,1.6,1.21,1.5,0,2-1,2.36-2.68l.14-.63a2.51,2.51,0,0,1-2.29,1.28c-1.42,0-2.31-1-2.31-2.73,0-2.1,1.26-4.48,3.59-4.48,1.24,0,1.87.63,2,1.16.09-.34.22-.81.3-1H53c-.14.56-.29,1.26-.43,1.89Zm-4.39-2.15c0,1.2.52,1.81,1.48,1.81,1.32,0,2.13-1.23,2.45-2.71s0-2.49-1.49-2.49S47.23,97.46,47.23,99.12Z" fill="#6c6c6c"/><path d="M58.86,94.86c.43,3.16.71,5.49.75,6.2h0c.4-.77,1.29-2.75,3.11-6.2H64L60,102.37c-1.23,2.34-1.9,2.53-3.2,2.53a3.49,3.49,0,0,1-.81-.09l.24-1a3.71,3.71,0,0,0,.64.06c.93,0,1.26-.39,1.89-1.49l-1.09-7.5Z" fill="#6c6c6c"/><path d="M70.6,97.66c0,1.87-1.07,4.45-3.79,4.45a2.53,2.53,0,0,1-2.67-2.86c0-2,1.2-4.53,3.76-4.53A2.61,2.61,0,0,1,70.6,97.66Zm-5.26,1.58c0,1.18.56,1.9,1.6,1.9,1.7,0,2.45-2,2.45-3.52,0-1.2-.51-1.92-1.59-1.92C66.15,95.7,65.34,97.72,65.34,99.24Z" fill="#6c6c6c"/><path d="M77.31,100.07c-.14.63-.27,1.33-.37,1.9H75.81a11.4,11.4,0,0,1,.2-1.23,2.65,2.65,0,0,1-2.38,1.37c-1.3,0-2.14-.75-1.74-2.61l1-4.64H74l-1,4.52c-.2.91-.16,1.73,1,1.73s2-.82,2.45-2.82l.74-3.43h1.16Z" fill="#6c6c6c"/><path d="M80.08,97c.14-.7.29-1.45.41-2.11H81.6a13.15,13.15,0,0,1-.26,1.51,2.8,2.8,0,0,1,2.5-1.65l-.26,1.21a3.09,3.09,0,0,0-2.71,2.71l-.7,3.33H79Z" fill="#6c6c6c"/><path d="M89.52,91.68h1.16l-.9,4.25a2.74,2.74,0,0,1,2.31-1.21c1.46,0,2.3,1,2.3,2.63,0,2.22-1.19,4.76-3.75,4.76A1.92,1.92,0,0,1,88.7,101c-.08.35-.19.8-.24,1H87.32c.08-.34.24-1,.43-1.9Zm3.66,5.78c0-1.12-.49-1.72-1.49-1.72-1.34,0-2.2,1.22-2.5,2.71s.1,2.66,1.47,2.66C92.39,101.11,93.18,99,93.18,97.46Z" fill="#6c6c6c"/><path d="M101.07,100.07c-.14.63-.27,1.33-.37,1.9H99.57a11.4,11.4,0,0,1,.2-1.23,2.67,2.67,0,0,1-2.39,1.37c-1.29,0-2.13-.75-1.73-2.61l1-4.64H97.8l-1,4.52c-.2.91-.16,1.73,1,1.73s2-.82,2.45-2.82l.73-3.43h1.16Z" fill="#6c6c6c"/><path d="M103.68,99.83c.07.74.53,1.34,1.66,1.34,1,0,1.45-.47,1.45-1.15s-.47-1-1.48-1.34c-1.52-.54-2-1.08-2-1.9,0-1.1.84-2.06,2.56-2.06s2.53,1,2.5,2H107.2c0-.49-.28-1.12-1.43-1.12-.74,0-1.28.36-1.28,1s.41.74,1.41,1.1c1.5.54,2.1,1.13,2.1,2.12,0,1.42-1.14,2.24-2.83,2.24s-2.68-1-2.67-2.28Z" fill="#6c6c6c"/><path d="M110.66,94.86h1.16L110.31,102h-1.16Zm.67-3.18h1.16l-.32,1.54H111Z" fill="#6c6c6c"/><path d="M113.52,96.67c.13-.62.25-1.22.36-1.81H115a11,11,0,0,1-.22,1.22,2.66,2.66,0,0,1,2.39-1.36c1.35,0,2.2.79,1.77,2.8L118,102h-1.15l.92-4.41c.24-1.07,0-1.81-1.09-1.81-1.32,0-2.07,1.21-2.38,2.67l-.75,3.55H112.4Z" fill="#6c6c6c"/><path d="M121.55,98.59a4.27,4.27,0,0,0-.06.68c0,1.19.57,1.87,1.57,1.87a1.93,1.93,0,0,0,1.83-1.17h1.21a3.2,3.2,0,0,1-3.17,2.14c-1.79,0-2.61-1.18-2.61-2.82,0-2,1.09-4.57,3.71-4.57a2.32,2.32,0,0,1,2.54,2.54,5.16,5.16,0,0,1-.17,1.33Zm3.85-.88a2.32,2.32,0,0,0,0-.51A1.34,1.34,0,0,0,124,95.67c-1.08,0-1.87.74-2.22,2Z" fill="#6c6c6c"/><path d="M128.41,99.83a1.45,1.45,0,0,0,1.66,1.34c1,0,1.45-.47,1.45-1.15s-.46-1-1.47-1.34c-1.53-.54-2-1.08-2-1.9,0-1.1.85-2.06,2.56-2.06s2.54,1,2.51,2h-1.18c-.05-.49-.28-1.12-1.43-1.12-.74,0-1.28.36-1.28,1s.41.74,1.41,1.1c1.49.54,2.1,1.13,2.1,2.12,0,1.42-1.14,2.24-2.84,2.24s-2.67-1-2.66-2.28Z" fill="#6c6c6c"/><path d="M134.94,99.83a1.45,1.45,0,0,0,1.66,1.34c1,0,1.45-.47,1.45-1.15s-.47-1-1.47-1.34c-1.53-.54-2-1.08-2-1.9,0-1.1.84-2.06,2.56-2.06s2.53,1,2.5,2h-1.18c-.05-.49-.28-1.12-1.43-1.12-.74,0-1.28.36-1.28,1s.41.74,1.41,1.1c1.5.54,2.1,1.13,2.1,2.12,0,1.42-1.14,2.24-2.83,2.24s-2.68-1-2.67-2.28Z" fill="#6c6c6c"/></g></g></svg>